# xmcd
#
# Track frame offsets:
#       150
#       9982
#       23175
#       32325
#       45975
#       56882
#       67400
#       80852
#       90750
#       103725
#       114380
#       125505
#
# Disc length: 1849 seconds
#
# Revision: 0
# Processed by: cddbd v1.4PL0 Copyright (c) Steve Scherf et al.
# Submitted via: CD-DA_X-Tractor v0.23
#
DISCID=9507370c
DTITLE=Dave Dudley - Trucker Classics
DYEAR=1996
DGENRE=Trucker Music
TTITLE0=Six Days On The Road
TTITLE1=Mad
TTITLE2=Truck Driving Man
TTITLE3=The Pool Shark
TTITLE4=One More Mile
TTITLE5=Two Six Packs Away
TTITLE6=Girl On The Billboard
TTITLE7=Fly Away Again
TTITLE8=Me And Ole CB
TTITLE9=Squaws Along The Yukon
TTITLE10=How Fast Them Trucks Can Go
TTITLE11=Freightliner Fever
EXTD=
EXTT0=
EXTT1=
EXTT2=
EXTT3=
EXTT4=
EXTT5=
EXTT6=
EXTT7=
EXTT8=
EXTT9=
EXTT10=
EXTT11=
PLAYORDER=
